HIERARCHY
ROOT Hips
{
	OFFSET 0.00000 0.00000 0.00000
	CHANNELS 6 Xposition Yposition Zposition Zrotation Yrotation Xrotation 
	JOINT LHipJoint
	{
		OFFSET 0 0 0
		CHANNELS 3 Zrotation Yrotation Xrotation
		JOINT LeftHip
		{
			OFFSET 1.30186 -1.90722 0.65024
			CHANNELS 3 Zrotation Yrotation Xrotation
			JOINT LeftKnee
			{
				OFFSET 2.56413 -7.04489 0.00000
				CHANNELS 3 Zrotation Yrotation Xrotation
				JOINT LeftAnkle
				{
					OFFSET 2.79321 -7.67428 0.00000
					CHANNELS 3 Zrotation Yrotation Xrotation
					JOINT LeftToe
					{
						OFFSET 0.15723 -0.43198 2.08537
						CHANNELS 3 Zrotation Yrotation Xrotation
						End Site
						{
							OFFSET 0.00000 -0.00000 1.07411
						}
					}
				}
			}
		}
	}
	JOINT RHipJoint
	{
		OFFSET 0 0 0
		CHANNELS 3 Zrotation Yrotation Xrotation
		JOINT RightHip
		{
			OFFSET -1.28627 -1.90723 0.65024
			CHANNELS 3 Zrotation Yrotation Xrotation
			JOINT RightKnee
			{
				OFFSET -2.56567 -7.04913 0.00000
				CHANNELS 3 Zrotation Yrotation Xrotation
				JOINT RightAnkle
				{
					OFFSET -2.75597 -7.57198 0.00000
					CHANNELS 3 Zrotation Yrotation Xrotation
					JOINT RightToe
					{
						OFFSET -0.17500 -0.48081 2.22901
						CHANNELS 3 Zrotation Yrotation Xrotation
						End Site
						{
							OFFSET -0.00000 -0.00000 1.14762
						}
					}
				}
			}
		}
	}
	JOINT lowerback
	{
		OFFSET 0 0 0
		CHANNELS 3 Zrotation Yrotation Xrotation
		JOINT Chest
		{
			OFFSET -0.04522 2.07467 -0.16566
			CHANNELS 3 Zrotation Yrotation Xrotation
			JOINT Chest2
			{
				OFFSET -0.01178 2.08825 -0.05393
				CHANNELS 3 Zrotation Yrotation Xrotation
				JOINT lowerneck
				{
					OFFSET 0 0 0
					CHANNELS 3 Zrotation Yrotation Xrotation
					JOINT Neck
					{
						OFFSET -0.05182 1.80489 0.16014
						CHANNELS 3 Zrotation Yrotation Xrotation
						JOINT Head
						{
							OFFSET 0.14739 1.78840 -0.33342
							CHANNELS 3 Zrotation Yrotation Xrotation
							End Site
							{
								OFFSET 0.04364 1.83899 -0.13460
							}
						}
					}
				}
				JOINT LeftCollar
				{
					OFFSET 0 0 0
					CHANNELS 3 Zrotation Yrotation Xrotation
					JOINT LeftShoulder
					{
						OFFSET 3.01264 1.29090 -0.06579
CHANNELS 3 Zrotation Xrotation Yrotation
						JOINT LeftElbow
						{
OFFSET 0 -5.556800 0.000000
CHANNELS 3 Zrotation Xrotation Yrotation
							JOINT LeftWrist
							{
OFFSET 0 -3.639790 -0.000000
CHANNELS 3 Zrotation Xrotation Yrotation
								JOINT lhand
								{
									OFFSET 0 0 0
CHANNELS 3 Zrotation Xrotation Yrotation
									JOINT LFingers
									{
OFFSET 0 -0.569420 -0.000000
CHANNELS 3 Zrotation Xrotation Yrotation
										End Site
										{
OFFSET 0 -0.459080 -0.000000
										}
									}
								}
								JOINT LThumb
								{
OFFSET 0 0.000000 0.000000
CHANNELS 3 Zrotation Xrotation Yrotation
									End Site
									{
OFFSET 0 -0.466090 0.466090
									}
								}
							}
						}
					}
				}
				JOINT RightCollar
				{
					OFFSET 0 0 0
					CHANNELS 3 Zrotation Yrotation Xrotation
					JOINT RightShoulder
					{
						OFFSET -3.15796 1.37283 -0.36748
CHANNELS 3 Zrotation Xrotation Yrotation
						JOINT RightElbow
						{
OFFSET 0 -5.343390 0.000000
CHANNELS 3 Zrotation Xrotation Yrotation
							JOINT RightWrist
							{
OFFSET 0 -3.651010 -0.000000
CHANNELS 3 Zrotation Xrotation Yrotation
								JOINT rhand
								{
									OFFSET 0 0 0
CHANNELS 3 Zrotation Xrotation Yrotation
									JOINT RFingers
									{
OFFSET 0 -0.694250 -0.000000
CHANNELS 3 Zrotation Xrotation Yrotation
										End Site
										{
OFFSET 0 -0.559720 -0.000000
										}
									}
								}
								JOINT RThumb
								{
OFFSET 0 0.000000 0.000000
CHANNELS 3 Zrotation Xrotation Yrotation
									End Site
									{
OFFSET 0 -0.568270 0.568270
									}
								}
							}
						}
					}
				}
			}
		}
	}
}
MOTION
Frames: 7
Frame Time: 0.008333333333333333
12.931700 17.541200 -21.743500 0.226300 -31.053600 5.500600 0.000000 0.000000 0.000000 -13.954800 -11.923900 -34.173300 3.786000 11.870000 35.273600 0.150800 -1.846800 -6.923700 0.067800 1.680100 4.622500 0.000000 0.000000 0.000000 21.868200 2.728000 -1.175800 -5.648400 -14.078700 43.553800 -0.005200 2.727500 4.197500 -0.018300 0.873600 -2.401100 2.458200 1.478100 8.959800 1.855800 2.169100 3.362100 0.317100 1.067500 -1.516200 4.466700 5.741300 -10.606400 -11.837900 9.196500 16.483400 -3.694500 3.651700 7.589800 0.000000 -0.000000 0.000000 5.619800 0.800400 -32.120200 15.027000 -24.183800 3.237000 23.095500 8.377100 -19.750400 0.000000 0.000000 0.000000 -7.125000 0.000000 0.000000 -5.344100 51.225200 0.821500 0.000000 -0.000000 0.000000 -9.654300 1.687100 17.364200 -22.181100 -33.181100 -6.684700 -11.761600 -6.772300 -34.285400 0.000000 0.000000 0.000000 7.125000 0.000000 -0.000000 11.462700 -4.258700 12.527900
12.895244 17.521253 -21.644154 0.527387 -31.041981 5.030161 0.000000 0.000000 0.000000 -14.369127 -11.940022 -33.938879 3.951043 12.091446 36.061151 0.178348 -1.293331 -7.631900 0.041172 0.513080 1.412747 0.000000 0.000000 0.000000 21.444674 2.817711 -1.453696 -5.974953 -14.396006 44.866014 -0.044125 2.624572 5.576864 -0.011377 0.648814 -1.783143 2.133681 1.325789 9.060598 1.822201 1.944459 3.315623 0.483789 0.953824 -1.631232 4.465732 5.848150 -9.939448 -11.991469 9.346341 16.200953 -3.743059 3.744607 7.399388 0.000000 0.000000 0.000000 5.372453 1.231140 -30.913142 14.980474 -24.118877 3.217973 22.986133 8.534494 -19.694772 0.000000 0.000000 0.000000 -7.125000 0.000000 0.000000 -5.437442 51.147689 0.825373 0.000000 0.000000 0.000000 -9.829462 1.807360 17.554612 -22.229756 -33.235663 -6.711376 -11.765812 -6.712121 -34.546981 0.000000 0.000000 0.000000 7.125000 0.000000 0.000000 11.485067 -4.515391 12.601005
12.858788 17.501307 -21.544809 0.828474 -31.030361 4.559722 0.000000 0.000000 0.000000 -14.783454 -11.956144 -33.704459 4.116087 12.312891 36.848702 0.205895 -0.739862 -8.340101 0.014545 -0.653940 -1.797006 0.000000 0.000000 0.000000 21.021148 2.907422 -1.731593 -6.301505 -14.713311 46.178227 -0.083050 2.521644 6.956228 -0.004454 0.424027 -1.165187 1.809162 1.173479 9.161396 1.788601 1.719818 3.269145 0.650479 0.840148 -1.746263 4.464763 5.954999 -9.272497 -12.145039 9.496183 15.918505 -3.791619 3.837513 7.208975 0.000000 0.000000 0.000000 5.125106 1.661879 -29.706083 14.933948 -24.053954 3.198947 22.876765 8.691888 -19.639145 0.000000 0.000000 0.000000 -7.125000 0.000000 0.000000 -5.530784 51.070178 0.829246 0.000000 0.000000 0.000000 -10.004624 1.927621 17.745025 -22.278412 -33.290225 -6.738052 -11.770024 -6.651943 -34.808562 0.000000 0.000000 0.000000 7.125000 0.000000 0.000000 11.507435 -4.772082 12.674110
12.822423 17.481089 -21.444694 1.191406 -31.061224 4.006399 0.000000 0.000000 0.000000 -15.298355 -11.845678 -33.305538 4.242041 12.473984 37.432663 0.227109 -0.558961 -8.811459 0.056549 -1.365282 -3.757309 0.000000 0.000000 0.000000 20.532248 3.061830 -2.044235 -6.667056 -15.036181 47.587712 -0.130390 2.631036 8.214117 -0.002417 0.288413 -0.792578 1.374568 1.106314 9.398825 1.752061 1.586837 3.560807 0.869559 0.770945 -1.585364 4.392448 6.110620 -10.032706 -12.244272 9.742978 15.958046 -3.765031 3.912187 7.384752 0.000000 0.000000 0.000000 5.124509 1.236820 -29.684638 14.752918 -23.800054 3.125946 23.234794 8.064242 -19.210225 0.000000 0.000000 0.000000 -7.125000 0.000000 0.000000 -5.063261 50.676244 0.715309 0.000000 0.000000 0.000000 -10.145719 1.317403 17.602591 -22.207448 -33.210555 -6.699173 -11.803101 -6.673697 -35.023770 0.000000 0.000000 0.000000 7.125000 0.000000 0.000000 11.510393 -4.987829 12.717220
12.786064 17.460852 -21.344526 1.558675 -31.095066 3.447266 0.000000 0.000000 0.000000 -15.820306 -11.726338 -32.895084 4.365255 12.630846 38.002351 0.247878 -0.404181 -9.266212 0.103365 -2.044676 -5.630011 0.000000 0.000000 0.000000 20.038763 3.220773 -2.359314 -7.035342 -15.359442 49.004015 -0.178320 2.755315 9.463489 -0.000722 0.159051 -0.437171 0.932258 1.045119 9.645833 1.715315 1.460283 3.876176 1.092312 0.704859 -1.405118 4.315131 6.269660 -10.892975 -12.339696 9.996571 16.020161 -3.733174 3.985583 7.586203 0.000000 0.000000 0.000000 5.141211 0.751760 -29.746318 14.562457 -23.532906 3.049161 23.625592 7.381555 -18.755133 0.000000 0.000000 0.000000 -7.125000 0.000000 0.000000 -4.556414 50.260126 0.593112 0.000000 0.000000 0.000000 -10.284425 0.655970 17.436822 -22.128098 -33.121473 -6.655697 -11.838201 -6.701197 -35.235726 0.000000 0.000000 0.000000 7.125000 0.000000 0.000000 11.511991 -5.200706 12.758227
12.749537 17.441035 -21.246545 1.923336 -31.162647 2.906895 0.000000 0.000000 0.000000 -16.336158 -11.552138 -32.490393 4.482621 12.774918 38.533839 0.258257 -0.796061 -9.360844 0.112277 -2.160330 -5.949065 0.000000 0.000000 0.000000 19.553188 3.410974 -2.701107 -7.399210 -15.651612 50.355826 -0.237482 2.821958 10.621738 -0.002730 -0.123867 0.340242 0.533364 1.074458 9.932009 1.651265 1.463347 3.917542 1.245312 0.703899 -1.527988 4.266632 6.267572 -10.684495 -12.399487 9.987646 15.791403 -3.750035 3.990867 7.474568 0.000000 0.000000 0.000000 5.756740 0.311630 -32.599476 13.663283 -22.232557 2.711584 24.604993 4.278239 -17.699364 0.000000 0.000000 0.000000 -7.125000 0.000000 0.000000 -3.373165 49.280562 0.391613 0.000000 0.000000 0.000000 -10.302306 0.672708 17.150605 -22.128049 -33.121411 -6.655637 -12.065856 -6.813425 -35.246462 0.000000 0.000000 0.000000 7.125000 0.000000 0.000000 11.389986 -5.247237 12.626157
12.712984 17.421282 -21.148893 2.287603 -31.235317 2.369355 0.000000 0.000000 0.000000 -16.851089 -11.369665 -32.086572 4.599105 12.917061 39.059567 0.267068 -1.270373 -9.401173 0.115472 -2.190976 -6.033838 0.000000 0.000000 0.000000 19.068806 3.605889 -3.046928 -7.762412 -15.939095 51.697911 -0.298339 2.879910 11.766245 -0.005296 -0.429941 1.181290 0.141017 1.117450 10.224091 1.583098 1.485956 3.917590 1.387795 0.712759 -1.696566 4.222478 6.241186 -10.314854 -12.453904 9.939135 15.518784 -3.774242 3.985880 7.315722 0.000000 0.000000 0.000000 6.462568 -0.121724 -35.873571 12.657240 -20.776409 2.334681 25.673152 0.809907 -16.553017 0.000000 0.000000 0.000000 -7.125000 0.000000 0.000000 -2.087918 48.216035 0.178155 0.000000 0.000000 0.000000 -10.301967 0.791710 16.846226 -22.139959 -33.134774 -6.662125 -12.322547 -6.938430 -35.226854 0.000000 0.000000 0.000000 7.125000 0.000000 0.000000 11.249344 -5.268684 12.467988
